<svg xmlns="http://www.w3.org/2000/svg" viewBox="0 0 200 200"><defs><style>
            .cls-1,.cls-3{fill:#fff}.cls-1{stroke:#707070}.cls-2{clip-path:url(#clip-path)}.cls-4{fill:#5490b2}.cls-5{fill:#106c93}.cls-6{fill:#6a9ebd}.cls-7{fill:#00628a}.cls-8{fill:#ec8a40}.cls-9{fill:#f4b849;stroke:#f2b136;stroke-miterlimit:10}
        </style><clipPath id="clip-path"><path id="Rectangle_327" d="M0 0h200v200H0z" class="cls-1" data-name="Rectangle 327" transform="translate(402 3225)"></path></clipPath></defs><g id="Mask_Group_20" class="cls-2" data-name="Mask Group 20" transform="translate(-402 -3225)"><g id="Group_1510" data-name="Group 1510" transform="translate(423 3222)"><path id="Path_521" d="M349.88 213.9a9.239 9.239 0 0 0-1.984.286c-7.285 2.871-40.944-4.21-46.838-7.7-5.514-3.261-46.686-36.079-46.686-72.684 4.27-34.776 26.2-49.149 30.5-54.909 6.286-8.411 42.937-25.31 55.518-22.574 6.441 1.4 27.8 11.4 33.556 14.643 1.25.7 34.166 17.083 35.386 36.606.421 6.734 7.932 39.656-1.83 66.5-4.881 9.762-27.045 27.133-36.18 34.3-4.601 3.61-21.107 6.975-21.442 5.532z" class="cls-3" data-name="Path 521" transform="translate(-254.372 -31.447)"></path><path id="Path_522" d="M336.623 76.369S368.482 91.1 366.581 101c0 0-19.652 28.128-27.205 27.645s-2.753-13.987-2.753-13.987L350.891 101l-19.069-8.836-4.655-15.9z" class="cls-4" data-name="Path 522" transform="translate(-229.931 -24.653)"></path><path id="Path_523" d="M306.961 76.262s-1.925 8.124-12.537 11.664l2.041 9.039L323 101l19.817-8.836-4.655-15.9-10.5 10.129s-5.541-2.256-7.29-10.129z" class="cls-4" data-name="Path 523" transform="translate(-240.924 -24.653)"></path><rect id="Rectangle_44" width="28.658" height="3.272" class="cls-3" data-name="Rectangle 44" rx="1.225" transform="rotate(-4.583 2559.785 -576.716)"></rect><ellipse id="Ellipse_9" cx="5.054" cy="7.018" class="cls-5" data-name="Ellipse 9" rx="5.054" ry="7.018" transform="rotate(-63.3 46.603 -59.192)"></ellipse><ellipse id="Ellipse_10" cx="20.227" cy="23.561" class="cls-6" data-name="Ellipse 10" rx="20.227" ry="23.561" transform="translate(50.302 9.504)"></ellipse><ellipse id="Ellipse_11" cx="2.964" cy="4.759" class="cls-6" data-name="Ellipse 11" rx="2.964" ry="4.759" transform="translate(47.571 33.064)"></ellipse><ellipse id="Ellipse_12" cx="2.964" cy="4.759" class="cls-6" data-name="Ellipse 12" rx="2.964" ry="4.759" transform="translate(87.792 33.064)"></ellipse><path id="Path_524" d="M328.042 166.709l-.875 28.557s17.738 1.166 20 0c0 0 4.389-3.3-1.826-6.416l-6.41-2 4.277-25.6z" class="cls-4" data-name="Path 524" transform="translate(-229.931 3.881)"></path><path id="Path_525" d="M309.416 167.869l1.509 20.41s-6.241-1.018-13.53 3.476c0 0-3.934 3.62 1.387 5.077l23.1-1.457 1.459-27.506z" class="cls-4" data-name="Path 525" transform="translate(-240.396 6.104)"></path><path id="Path_526" d="M290.526 100.594s-12.735 8.694-13.124 11.8c0 0-.389-18.413-3.5-24.173 0 0 7.387-13.589 5.055-19.978 0 0-3.888-5.221-7 5.275 0 0-3.887-11.835-11.274-6.695s2.931 16.025 2.931 16.025 2.123 41.6 8.732 43.153c0 0 26.436-8.9 24.492-19.809z" class="cls-4" data-name="Path 526" transform="translate(-253.147 -28.255)"></path><path id="Path_527" d="M298.153 125.826s-1.616 42.4 10.563 59.755h13.929s4.861-6.7 5.477-36.908c0 0 .355 28.5 9.685 33.525l18-3.319s7.054-47.34-14.22-63.761z" class="cls-7" data-name="Path 527" transform="translate(-239.696 -11.607)"></path><ellipse id="Ellipse_13" cx="1.988" cy="1.988" class="cls-7" data-name="Ellipse 13" rx="1.988" ry="1.988" transform="translate(61.911 31.076)"></ellipse><ellipse id="Ellipse_14" cx="1.988" cy="1.988" class="cls-7" data-name="Ellipse 14" rx="1.988" ry="1.988" transform="translate(75.708 31.076)"></ellipse><path id="Path_528" d="M298.616 86.592s13.388 11.529 32.726-2.6c0 0 7.066-10.106 15.248-13.42l13.76 28.3s2.786 4.834-17.388 3.346c0 0 23.971 24.544 17.518 40.907l-67.814 3.347s-.964-35.774 5.358-40.883l-11.663 12.83-7.581-19.835s10.215-16.084 19.836-11.992z" class="cls-8" data-name="Path 528" transform="translate(-246.177 -26.565)"></path><rect id="Rectangle_45" width="22.57" height="3.272" class="cls-3" data-name="Rectangle 45" rx="1.225" transform="translate(96.222 197.686)"></rect><path id="Path_529" d="M308.434 194.657l-6.977-10.11a2.333 2.333 0 1 1 3.84-2.649l4.3 6.23 9.663-6.812a2.333 2.333 0 1 1 2.688 3.814z" class="cls-3" data-name="Path 529" transform="translate(-238.701 10.476)"></path><path id="Path_530" d="M336.623 192.407l-10.311-10.335a2.333 2.333 0 0 1 3.3-3.3l5.662 5.678 2.064-4.276a2.333 2.333 0 0 1 4.2 2.028z" class="cls-3" data-name="Path 530" transform="translate(-230.446 9.537)"></path><path id="Path_531" d="M308.631 69a5.361 5.361 0 0 1-3.255-1.178l.743-.9c.1.081 2.5 2 4.746.015l.775.872A4.442 4.442 0 0 1 308.631 69z" class="cls-7" data-name="Path 531" transform="translate(-237.247 -27.788)"></path><path id="Path_532" d="M303.7 72.248h11.808s-1.877 4.834-6.442 4.471a5.824 5.824 0 0 1-5.366-4.471z" class="cls-3" data-name="Path 532" transform="translate(-237.81 -26.001)"></path><path id="Path_533" d="M292.03 66.682s11.009-9.366 13.6-15.234c0 0 17.239 14.812 26.5 12.849 0 0 9.361-27.157-25.239-19.188.001-.001-15.045 1.428-14.861 21.573z" class="cls-5" data-name="Path 533" transform="translate(-241.728 -35.605)"></path><path id="Path_534" d="M323.683 50.493a1.158 1.158 0 0 1-.548-.136l-9.365-4.994a1.166 1.166 0 0 1 1.1-2.058l9.365 4.994a1.166 1.166 0 0 1-.55 2.195z" class="cls-9" data-name="Path 534" transform="translate(-234.636 -35.765)"></path></g></g></svg>