<svg xmlns="http://www.w3.org/2000/svg" viewBox="0 0 200 200"><defs><style>
            .cls-1,.cls-3{fill:#fff}.cls-1{stroke:#707070}.cls-2{clip-path:url(#clip-path)}.cls-4{fill:#00628a}.cls-5{fill:#ec8a40}
        </style><clipPath id="clip-path"><path id="Rectangle_329" d="M0 0h200v200H0z" class="cls-1" data-name="Rectangle 329" transform="translate(818 3283)"></path></clipPath></defs><g id="Mask_Group_22" class="cls-2" data-name="Mask Group 22" transform="translate(-818 -3283)"><g id="Group_1518" data-name="Group 1518" transform="translate(-5880.864 18701.865)"><path id="Path_27069" d="M736.778 69.032a27.59 27.59 0 0 1 3.67 2.454c9.734 7.878 11.488 24.012 18.515 34.036 5.152 7.349 13 13.447 14.565 22.284 4.963 27.985 1.231 65.6-18.376 87.414-30.594 26.639-60.6 22.043-68.769 23.671-13.36 2.659-31.303-4.891-43.31-9.891-17.662-7.346-23.535-20.5-32.148-35.813-8.916-15.857-18.206-31.265-17.742-50.176a72.1 72.1 0 0 1 5.087-23.676c10.916-28.744 30.507-43.625 56.188-57.315 13.5-7.2 43.161-4.333 57.743-1.526 6.566 1.269 17.432 4.464 24.577 8.538z" class="cls-3" data-name="Path 27069" transform="translate(6114.834 -15476.037)"></path><path id="Path_27070" d="M655.2 242.474l4.391-84.942s-17.839-13.964-34.527-27.2 1.151-46.613 8.056-50.642a3.936 3.936 0 0 1 5.745 1.3s-3.665-15.325 11.659-15.11c0 0 14.242-2.805 15.968 4.748 0 0 15.97-7.768 20.932 3.453 0 0 17.048-5.611 19.207 2.372 0 0 13.162-6.905 16.616 9.064v52.223s.175 7.337-7.122 14.89c0 0-3.02 2.805-2.157 23.738l-1.315 75.889z" class="cls-4" data-name="Path 27070" transform="translate(6128.481 -15471.731)"></path><rect id="Rectangle_314" width="62.157" height="2.59" class="cls-5" data-name="Rectangle 314" rx=".837" transform="translate(6785.91 -15300.543)"></rect><rect id="Rectangle_315" width="62.157" height="2.59" class="cls-5" data-name="Rectangle 315" rx=".837" transform="translate(6782.458 -15294.994)"></rect><rect id="Rectangle_316" width="62.157" height="2.59" class="cls-5" data-name="Rectangle 316" rx=".837" transform="translate(6785.91 -15289.447)"></rect><rect id="Rectangle_318" width="62.157" height="2.59" class="cls-5" data-name="Rectangle 318" rx=".837" transform="translate(6782.458 -15266.597)"></rect><rect id="Rectangle_319" width="62.157" height="2.59" class="cls-4" data-name="Rectangle 319" rx=".837" transform="translate(6782.458 -15277.789)"></rect><rect id="Rectangle_321" width="62.157" height="2.59" class="cls-4" data-name="Rectangle 321" rx=".837" transform="translate(6779.003 -15253.498)"></rect><rect id="Rectangle_317" width="62.157" height="2.59" class="cls-4" data-name="Rectangle 317" rx=".837" transform="translate(6781.139 -15305.29)"></rect><rect id="Rectangle_320" width="62.157" height="2.59" class="cls-4" data-name="Rectangle 320" rx=".837" transform="translate(6785.91 -15285.005)"></rect><path id="Path_27071" d="M675.41 129.6a.757.757 0 0 1-.32-.07.772.772 0 0 1-.384-1.024 11.527 11.527 0 0 0 .393-9.344c-3.044-7.634-13.682-12.018-13.791-12.061-12.211-5.452-18.7-4.641-22-3a8.69 8.69 0 0 0-2.533 1.874 5.089 5.089 0 0 1-1.905 3.191.774.774 0 0 1-1.217-.795 8.193 8.193 0 0 1 1.687-3.105c.4-2.92-1.064-7.134-2.529-10.332a12.6 12.6 0 0 1-1.737-3.405.773.773 0 0 1 1.4-.633c.094.164.8 1.4 1.63 3.169 5.73 7.81 20.818 7.242 20.981 7.236a9.41 9.41 0 0 0 7.278-2.1c2.651-2.368 3.378-6.09 3.571-7.651-9.374-1.175-33.455-14.545-34.5-15.13a.773.773 0 0 1 .752-1.352c.263.145 26.279 14.592 34.632 15.008a.776.776 0 0 1 .735.8c-.009.243-.258 6-4.154 9.477a10.773 10.773 0 0 1-8.333 2.487c-.063 0-.268.012-.591.017a63.779 63.779 0 0 1 7.44 2.822c.436.176 11.325 4.657 14.619 12.906a13.026 13.026 0 0 1-.421 10.563.775.775 0 0 1-.703.452zm-39.757-31.768a21.258 21.258 0 0 1 1.279 5.92 10.482 10.482 0 0 1 1.692-1.041 13.618 13.618 0 0 1 4.545-1.291 22.235 22.235 0 0 1-7.516-3.588z" class="cls-3" data-name="Path 27071" transform="translate(6135.532 -15466.487)"></path><path id="Path_27072" d="M684 113.358a8.728 8.728 0 0 1-4.057-.957c-4.092-2.111-5.3-6.925-5.345-7.13a.8.8 0 0 1-.022-.182V75.741a.773.773 0 0 1 1.547 0v29.247c.17.6 1.342 4.4 4.539 6.044 2.13 1.095 4.751 1.032 7.79-.187a.774.774 0 0 1 .574 1.437 13.58 13.58 0 0 1-5.026 1.076z" class="cls-3" data-name="Path 27072" transform="translate(6159.328 -15466.487)"></path><path id="Path_27073" d="M673.014 115.657a12.745 12.745 0 0 1-7.513-2.119 11.577 11.577 0 0 1-4.593-8.362v-31.11a.773.773 0 1 1 1.547 0v31.075a10.184 10.184 0 0 0 3.953 7.143c3.235 2.269 8.1 2.427 14.465.473a.773.773 0 0 1 .453 1.478 28.652 28.652 0 0 1-8.312 1.422z" class="cls-3" data-name="Path 27073" transform="translate(6151.856 -15467.401)"></path><path id="Path_27074" d="M648.84 89.448a.772.772 0 0 1-.773-.773V72.113a.773.773 0 0 1 1.547 0v16.562a.774.774 0 0 1-.774.773z" class="cls-3" data-name="Path 27074" transform="translate(6144.839 -15468.469)"></path><path id="Path_27075" d="M656.783 99.687a3.628 3.628 0 0 1-2.171-.642.774.774 0 0 1 .951-1.22c.1.074 1.977 1.352 5.274-1.806a.774.774 0 0 1 1.07 1.118c-2.107 2.021-3.865 2.55-5.124 2.55z" class="cls-3" data-name="Path 27075" transform="translate(6148.256 -15455.098)"></path></g></g></svg>