<svg xmlns="http://www.w3.org/2000/svg" viewBox="0 0 200 200"><defs><style>
            .cls-1,.cls-3{fill:#fff}.cls-1{stroke:#707070}.cls-2{clip-path:url(#clip-path)}.cls-4{fill:#00628a}
        </style><clipPath id="clip-path"><path id="Rectangle_328" d="M0 0h200v200H0z" class="cls-1" data-name="Rectangle 328" transform="translate(749 3259)"></path></clipPath></defs><g id="Mask_Group_21" class="cls-2" data-name="Mask Group 21" transform="translate(-749 -3259)"><g id="Group_1517" data-name="Group 1517" transform="translate(-5330.849 18736.893)"><path id="Path_27068" d="M426.713 136.182a9.7 9.7 0 0 0 .283-2.1c-.8-8.221 16.12-40.322 21.361-45.294 4.9-4.649 50.112-36.926 87.25-26.334 34.045 14.4 42.282 40.8 46.883 46.838 7.52 9.874 8.512 27.585 9.225 39.414 1.05 17.4-7.369 27.466-16.464 40.642-9.418 13.643-18.317 27.411-33.987 34.595a65.694 65.694 0 0 1-21.419 5.3c-27.9 2.558-47.919-7.532-69.4-23.083-8.492-7.776-19.7-35.29-24.327-46.631-2.327-5.705-.967-23.429.595-23.347z" class="cls-3" data-name="Path 27068" transform="translate(5672.029 -15506.499)"></path><path id="Path_27067" d="M506.612 37.035l-38.22 78.665-11.386 19.457a115.889 115.889 0 0 0-10.406 28.115c-.93 4.161-2.311 9.1-1.931 13.351.54 6.06 2.467 12.329 4.366 18.082a31.329 31.329 0 0 0 3.019 6.933 31.472 31.472 0 0 0 7.148 7.428 93.568 93.568 0 0 0 30.412 16.774c10.473 3.3 21.871.207 32.181-2.152a63.943 63.943 0 0 0 11.7-3.474 58.241 58.241 0 0 0 10.079-6.115c3.558-2.534 8.266-5.2 10.618-8.837 27.2-42.134-5.245-86.63-18.807-96.872-18.885-14.257-28.773-71.355-28.773-71.355z" class="cls-4" data-name="Path 27067" transform="translate(5680.104 -15516.035)"></path><path id="Path_27076" d="M526.577 127.93c-.875 18.628-6.454 40.515-17.228 49.7-4.6 3.925-10.012 4.1-15.091 3.772a1.649 1.649 0 0 1-1.308-.514c-.778-.981-.21-2.985.474-4.29 1.943-3.715 4.526-6.563 6.932-9.633 9.587-12.238 17.405-32.774 20.945-50.129a13.74 13.74 0 0 1 1.429-4.49c.781-1.232 2.183-1.787 2.932-.709a5.341 5.341 0 0 1 .62 2.386 95.218 95.218 0 0 1 .295 13.907z" class="cls-3" data-name="Path 27076" transform="translate(5699.734 -15485.741)"></path></g></g></svg>