<svg xmlns="http://www.w3.org/2000/svg" viewBox="0 0 200 200"><defs><style>
            .cls-1{fill:#fff}.cls-2{clip-path:url(#clip-path)}.cls-3{fill:#ffa300}.cls-4{fill:#00628a}.cls-5{fill:#f6c162}.cls-6{fill:#f2b136}.cls-7{fill:#3f83a7}.cls-8{fill:#5490b2}.cls-9{fill:#cdd4d4}.cls-10{fill:#ffbd52}.cls-11{fill:#ec8a40}.cls-12{fill:#106c93}
        </style><clipPath id="clip-path"><path id="Rectangle_325" d="M0 0h200v200H0z" class="cls-1" data-name="Rectangle 325" transform="translate(267 2687)"></path></clipPath></defs><g id="Mask_Group_19" class="cls-2" data-name="Mask Group 19" transform="translate(-267 -2687)"><g id="Group_1512" data-name="Group 1512" transform="translate(268.053 2687.774)"><g id="Group_1511" data-name="Group 1511"><path id="Path_480" d="M210.99 363.72a11.538 11.538 0 0 0-2.48.357c-9.1 3.586-51.151-5.262-58.515-9.615-6.887-4.073-58.325-45.073-58.325-90.805 5.335-43.444 32.731-61.4 38.109-68.6 7.855-10.507 53.64-31.618 69.36-28.2 8.047 1.749 34.725 14.239 41.921 18.293 1.562.879 42.682 21.34 44.207 45.731.526 8.414 9.907 49.544-2.286 83.079-6.1 12.2-33.789 33.9-45.2 42.847-5.753 4.51-26.372 8.716-26.791 6.913z" class="cls-1" data-name="Path 480" transform="translate(-91.671 -166.489)"></path><path id="Path_481" d="M190.814 313.417c-5.348-37.812-6.952-77.317-6.952-77.317l-18.688-7.294 5.625 92.683c6.445-1.317 14.548-3.785 17.826-6.355z" class="cls-3" data-name="Path 481" transform="translate(-42.516 -124.815)"></path><path id="Path_482" d="M123.071 275.715s3.169-41.171 14.45-51.464l5.49-.572s7.878 21.171 28.549 11.107c0 0 28.135-1.222 25.275-13.6 0 0 36.025 18.3 39.456 27.262l-13.724 7.434-17.921-14.356s7.057 12.457 2.481 20.748l-6.861 26.026h-49.747s-8.726-20.791-7.508-32.411l-5.49 19.83z" class="cls-4" data-name="Path 482" transform="translate(-70.672 -129.909)"></path><path id="Path_483" d="M196.723 227.681s-.666-12.189-12.814-8.055c0 0-8.708-6.406-12.149 4.135 0 0-26.85 38.83-36.671 44.254 0 0-2.54 23.523 11.92 25.48a290.886 290.886 0 0 0 2.133 34.4c12.743 2.37 25.832 3.751 30.448 1.932a11.539 11.539 0 0 1 2.48-.357c.3 1.3 11.129-.529 19.292-3.342a219.041 219.041 0 0 0-9.018-35.5h-21.557s30.862-27.498 25.936-62.947z" class="cls-5" data-name="Path 483" transform="translate(-62.75 -132.244)"></path><path id="Path_484" d="M132.329 287.472a27.667 27.667 0 0 0-.93 6.56c14.805 4.384 43.249 9.5 50.542 6.622a11.538 11.538 0 0 1 2.48-.357c.127.551 2.148.537 5.05.13 4.1-22.058 5.6-38.975 5.6-38.975h-43.09c-14.827-2.215-19.652 26.02-19.652 26.02z" class="cls-6" data-name="Path 484" transform="translate(-65.102 -103.066)"></path><path id="Path_485" d="M132.1 287.472a27.332 27.332 0 0 0-.923 6.45c14.7 4.409 43.559 9.629 50.914 6.732a11.538 11.538 0 0 1 2.48-.357c.122.526 1.971.537 4.661.182 4.107-22.083 5.614-39.027 5.614-39.027h-43.095c-14.827-2.215-19.651 26.02-19.651 26.02z" class="cls-5" data-name="Path 485" transform="translate(-65.251 -103.066)"></path><path id="Path_486" d="M196.724 227.681s-.667-12.189-12.816-8.055c0 0-8.708-6.406-12.15 4.135 0 0-26.849 38.83-36.669 44.254 0 0-2.54 23.523 11.92 25.48a290.886 290.886 0 0 0 2.133 34.4c12.743 2.37 25.832 3.751 30.448 1.932a11.539 11.539 0 0 1 2.48-.357c.3 1.3 11.129-.529 19.292-3.342a219.041 219.041 0 0 0-9.018-35.5h-21.557s30.862-27.498 25.937-62.947z" class="cls-6" data-name="Path 486" transform="translate(-62.75 -132.244)"></path><path id="Path_487" d="M164.589 286.443L161.51 300.7c.1-.032.207-.058.3-.093a11.536 11.536 0 0 1 2.48-.357c.032.137.194.235.444.305 1.542-8.164 2.632-14.435 2.632-14.435 2.773-6.523 5.382-24.716 5.382-24.716H170.3z" class="cls-4" data-name="Path 487" transform="translate(-44.966 -103.016)"></path><path id="Path_488" d="M151.851 210.687v17.524L135.02 230.7s6.388 24.517 23.66 20.846c0 0 37.976-9.866 30.164-23.336h-23.823l4.639-17.524z" class="cls-7" data-name="Path 488" transform="translate(-62.681 -136.932)"></path><path id="Path_489" d="M172.959 278.956s1.607 4.723-1.288 7.7c0 0-2.627-.854-1.06-6.024 0 0-5.17 2.023-6.707-.487 0 0-1.816-3.578 6.231-3.771 0 0-.871-4.329 2.088-5.6 0 0 2.283 3.429 1.509 5.807 0 0 3.174-1.423 3.4 2.36-.003-.003-1.351 2.597-4.173.015z" class="cls-4" data-name="Path 489" transform="translate(-43.482 -96.75)"></path><path id="Path_490" d="M168.686 179.687s11.9 10.456 8.264 20.182c0 0 4.441-10.391 6.727 0 0 0 3.863 9-4 11.785l-6.365-2.059s6.59 16.993-11.594 16.924-2.241-43.234-2.241-43.234z" class="cls-4" data-name="Path 490" transform="translate(-50.651 -157.663)"></path><ellipse id="Ellipse_1" cx="25.16" cy="32.705" class="cls-8" data-name="Ellipse 1" rx="25.16" ry="32.705" transform="translate(70.837 14.379)"></ellipse><path id="Path_491" d="M183.61 192.324s-30.308 2.131-47.892 17.026c0 0-7.227-4.519-2.223-17.385 0 0-5.47-25.67 17.247-16.666 5.051 2 8.564-5.719 22.051-.858 13.293 4.791 10.817 17.883 10.817 17.883z" class="cls-4" data-name="Path 491" transform="translate(-64.881 -162.265)"></path><ellipse id="Ellipse_2" cx="1.501" cy="4.847" class="cls-7" data-name="Ellipse 2" rx="1.501" ry="4.847" transform="translate(119.657 47.085)"></ellipse><ellipse id="Ellipse_3" cx="1.501" cy="4.847" class="cls-7" data-name="Ellipse 3" rx="1.501" ry="4.847" transform="translate(69.336 47.085)"></ellipse><path id="Path_492" d="M164.391 197.813s-3.83-5.4-11.393 0c.002 0 7.563 3.733 11.393 0z" class="cls-9" data-name="Path 492" transform="translate(-50.658 -147.147)"></path><ellipse id="Ellipse_4" cx="2.242" cy="2.242" class="cls-4" data-name="Ellipse 4" rx="2.242" ry="2.242" transform="translate(106.58 48.054)"></ellipse><path id="Path_493" d="M149.672 197.813s-3.831-5.4-11.394 0c0 0 7.563 3.733 11.394 0z" class="cls-9" data-name="Path 493" transform="translate(-60.502 -147.147)"></path><ellipse id="Ellipse_5" cx="2.242" cy="2.242" class="cls-4" data-name="Ellipse 5" rx="2.242" ry="2.242" transform="translate(82.017 48.054)"></ellipse><path id="Path_494" d="M138.365 196.027l-.461-.724a13.1 13.1 0 0 1 12.617-.756l-.411.753a12.214 12.214 0 0 0-11.745.727z" class="cls-4" data-name="Path 494" transform="translate(-60.752 -148.58)"></path><path id="Path_495" d="M152.451 196.027l-.461-.724a13.1 13.1 0 0 1 12.619-.756l-.41.753a12.217 12.217 0 0 0-11.748.727z" class="cls-4" data-name="Path 495" transform="translate(-51.332 -148.58)"></path><path id="Path_496" d="M149.456 206.251l-.218-.829 4.35-1.145-4.614-8.092.745-.425 5.166 9.063z" class="cls-4" data-name="Path 496" transform="translate(-53.349 -146.914)"></path><path id="Path_497" d="M143.506 204.073l15.84 2.638a11.558 11.558 0 0 1-9.46 3.431 6.941 6.941 0 0 1-6.38-6.069z" class="cls-1" data-name="Path 497" transform="translate(-57.006 -141.355)"></path><ellipse id="Ellipse_6" cx="1.941" cy="1.941" class="cls-10" data-name="Ellipse 6" rx="1.941" ry="1.941" transform="translate(69.336 55.04)"></ellipse><ellipse id="Ellipse_7" cx="1.941" cy="1.941" class="cls-10" data-name="Ellipse 7" rx="1.941" ry="1.941" transform="translate(119.217 54.837)"></ellipse><path id="Path_498" d="M181.707 218.8a13.255 13.255 0 0 1 3.017 6.707 37.042 37.042 0 0 1-2.283 22.176s-5.066 25.685-20.948 36.626c0 0-5.026 4.848-11.119 5.881h-3.808s11.4-5.979 12.139-6.959c0 0 12.225-7.174 17.083-23.97 0 0 7.987-19.615 7.321-23.341 0 0 1.941-14.37-3.93-17.12-.001 0 .815-1.159 2.528 0z" class="cls-4" data-name="Path 498" transform="translate(-54.96 -131.849)"></path><path id="Path_499" d="M154.98 273.063s.995-4.582 8.105-2.647c0 0-2.685 4.339-6.675 4.9 0 0 3.885 1.35 2.033 4.239 0 0-.5.451-4.906-3.993 0 0-3.217 4.676-6.625 2.627 0 0 2.67-4.088 5.368-4.606 0 0-1.974-1.1-.708-4.672.001-.004 2.778-.351 3.408 4.152z" class="cls-4" data-name="Path 499" transform="translate(-54.728 -98.001)"></path><path id="Path_500" d="M145.854 274.761s4.651.6 3.334 7.848c0 0-4.554-2.3-5.454-6.229 0 0-1.011 3.987-4.048 2.39 0 0-.492-.462 3.556-5.231 0 0-4.936-2.8-3.187-6.375 0 0 4.3 2.308 5.051 4.953 0 0 .929-2.061 4.594-1.106 0-.002.586 2.734-3.846 3.75z" class="cls-4" data-name="Path 500" transform="translate(-59.573 -99.163)"></path><path id="Path_501" d="M162.774 269.3s-3.221 3.408-8.307-1.924c0 0 4.542-2.326 8.247-.743 0 0-2.63-3.164.449-4.679 0 0 .664-.127 2.136 5.954 0 0 5.171-2.341 7.03 1.175 0 0-4.4 2.121-6.977 1.168 0 0 1.12 1.966-1.809 4.367 0 .004-2.556-1.134-.769-5.318z" class="cls-4" data-name="Path 501" transform="translate(-49.676 -102.644)"></path><path id="Path_502" d="M140.668 264.641a2.663 2.663 0 0 1 3.3-.612 6.757 6.757 0 0 1 4.28-3.791s2.568.123-.611 4.4c0 0 3.179 1.1 2.445 3.546 0 0-1.6 2.814-4.653 0 0 0 .005 3.057-3.908 2.69a3.7 3.7 0 0 1 1.582-4.035s-1.579.37-2.435-2.198z" class="cls-4" data-name="Path 502" transform="translate(-58.904 -103.795)"></path><path id="Path_503" d="M147.087 266.124a2.661 2.661 0 0 1 3.3-.611 6.757 6.757 0 0 1 4.28-3.791s2.568.122-.611 4.4c0 0 3.179 1.1 2.445 3.548 0 0-1.6 2.812-4.652 0 0 0 .005 3.057-3.908 2.69a3.7 3.7 0 0 1 1.582-4.037s-1.58.369-2.436-2.199z" class="cls-4" data-name="Path 503" transform="translate(-54.611 -102.802)"></path><path id="Path_504" d="M138.65 278.579s-.364-1.966 2.683-4.97c0 0 2.775 2.048-.728 5.687 0 0 5.64-1 5.185 1.819 0 0-2.183 2.775-5.912.5 0 0-.047 4.459-3.139 4.823a5 5 0 0 1 .227-5.095 6.732 6.732 0 0 1-2.229-6.642s3.55 1.021 3.913 3.878z" class="cls-4" data-name="Path 504" transform="translate(-62.981 -94.853)"></path><path id="Path_505" d="M154.387 280.6s-.364-1.966 2.683-4.968c0 0 2.775 2.048-.728 5.687 0 0 5.64-1 5.186 1.819 0 0-2.184 2.775-5.914.5 0 0-.045 4.457-3.139 4.821a5 5 0 0 1 .227-5.095 6.727 6.727 0 0 1-2.228-6.642s3.549 1.024 3.913 3.878z" class="cls-4" data-name="Path 505" transform="translate(-52.456 -93.499)"></path><path id="Path_506" d="M164.235 277.762s-.471 4.966-4.332 6.5c0 0-2.046-1.856 1.5-5.929 0 0-5.544-.274-5.917-3.194 0 0-.19-4.007 7.231-.886 0 0 .98-4.305 4.2-4.255 0 0 .677 4.063-1 5.916 0 0 3.478 0 2.131 3.546-.002-.004-2.298 1.813-3.813-1.698z" class="cls-4" data-name="Path 506" transform="translate(-48.994 -97.27)"></path><path id="Path_507" d="M155.488 258.567l-1.631 16.8 11.85-1.038.583-15.757h3.8l1.711 13 11.573.533-1.307-19.731-25 2.985z" class="cls-11" data-name="Path 507" transform="translate(-50.084 -109.056)"></path><path id="Path_508" d="M207.862 244.959a134.18 134.18 0 0 1-25.6 13.5c-15.838 6.451-23.958 2.747-23.958 2.747s-11.631 1.095-13.17 7.291 20.4 8.677 28.995 2.872c0 0 46.351-11.973 50.265-16.611 0 0 6.692-14.607-2.81-17.23z" class="cls-7" data-name="Path 508" transform="translate(-55.967 -118.984)"></path><path id="Path_509" d="M150.76 242.758s-10.111-11.251-9.784-14.839c0 0-3.93-4.4-.008-6.849a3.437 3.437 0 0 1 3.159.616l3.046-2.248s2.915.29 1.866 2.919c0 0-2.355 2.79-1.866 3.6 0 0 7.836 12.839 12.013 13.535" class="cls-12" data-name="Path 509" transform="translate(-59.868 -131.079)"></path><path id="Path_510" d="M169.219 229.87s-.152-8.2-1.03-9.886c0 0-.252-1.035-1.39-.517 0 0-.4-3.05 2.42-1.5 0 0 3.473-4.09 5.512 1.5 0 0 .164 2.657-1.957 3.309 0 0 2.773 9.377.734 12.067z" class="cls-12" data-name="Path 510" transform="translate(-41.442 -133.029)"></path><rect id="Rectangle_42" width="4.973" height="4.973" class="cls-12" data-name="Rectangle 42" rx="1.49" transform="translate(98.084 96.84)"></rect><rect id="Rectangle_43" width="4.973" height="4.973" class="cls-12" data-name="Rectangle 43" rx="1.49" transform="translate(121.158 92.653)"></rect><path id="Path_511" d="M158.43 230.041s.09 6.221-3.987 8.666c0 0 10.473 10.844 18.894 0 0 0-5.489-5.977-3.988-11.748z" class="cls-12" data-name="Path 511" transform="translate(-49.692 -126.05)"></path><ellipse id="Ellipse_8" cx="14.081" cy="15.797" class="cls-4" data-name="Ellipse 8" rx="14.081" ry="15.797" transform="translate(97.706 74.867)"></ellipse><path id="Path_512" d="M146.138 239.359c1.987 3.261 10 6.862 10 6.862v17.23c24.673 11.7 33.086-5.991 33.086-5.991 4.025-7.389-2.972-16.988-2.972-16.988l2.266-13.24-5.492-2.712-4.681 11.58c-11.344 7.845-18.91 2.183-18.91 2.183l-6.483-3.389z" class="cls-1" data-name="Path 512" transform="translate(-55.246 -127.68)"></path><path id="Path_513" d="M152.491 251.657s-2.8 5.519 1.452 6.448 21.654 11.857 34.048-6.448c0 0 2.595-10.49-6.481-9.423z" class="cls-11" data-name="Path 513" transform="translate(-51.603 -115.886)"></path><path id="Path_514" d="M164.82 264.8s3.544 2.7-.567 5.559-11.9 1.32-11.9 1.32-3.052-3.221 1.322-4 5.1-2.96 5.1-2.96z" class="cls-12" data-name="Path 514" transform="translate(-51.782 -100.802)"></path><path id="Path_515" d="M166.072 263.853s.556 6.046 4.028 8.159c0 0 6.688.459 7.037-1.812 0 0 1.5-.758-1.931-2.248a6.594 6.594 0 0 1-.981-5.076s-7.891-2.463-8.153.977z" class="cls-12" data-name="Path 515" transform="translate(-41.915 -102.602)"></path><path id="Path_516" d="M133.391 274.468a11.193 11.193 0 0 0 3.156-.282 5.76 5.76 0 0 0 0 4.566s3.471-.581 2.6-5c0 0 3.292.174 4.419-2.253 0 0-.172-1.732-4.938-.174 0 0 1.993-3.206-.087-5.717 0 0-3.64 2.338-2.773 6.325 0 0-.527-.137-1.285-.247a57.368 57.368 0 0 0-1.092 2.782z" class="cls-4" data-name="Path 516" transform="translate(-63.771 -100.202)"></path><path id="Path_517" d="M176.7 283.449c-3.835-4.943-4.389-4.556-4.389-4.556-2.188 2.645 1.507 4.452 1.507 4.452-4.027.075-7.217 4.058-7.217 4.058a13 13 0 0 0 2.468.749c1.594-.309 3.311-.7 5.046-1.14a3.713 3.713 0 0 0 .851-1.26 9.086 9.086 0 0 0 .078 1.015c1-.269 2-.554 2.985-.858a1.825 1.825 0 0 0-.322-.345c2.743-.189 5.886-3.925 5.886-3.925-3.139-2.439-6.893 1.81-6.893 1.81z" class="cls-4" data-name="Path 517" transform="translate(-41.564 -91.323)"></path><path id="Path_518" d="M161.9 284.525c3.179-4.28.611-4.4.611-4.4a6.757 6.757 0 0 0-4.28 3.791 2.662 2.662 0 0 0-3.3.611c.856 2.57 2.436 2.2 2.436 2.2a3.7 3.7 0 0 0-1.552 2.078c1.315.073 2.558.113 3.71.112a2.9 2.9 0 0 0 .169-.844 5.917 5.917 0 0 0 1.1.821 27 27 0 0 0 3.076-.247 2.805 2.805 0 0 0 .474-.574c.739-2.447-2.444-3.548-2.444-3.548z" class="cls-4" data-name="Path 518" transform="translate(-49.364 -90.496)"></path><path id="Path_519" d="M148.908 286.606c7.838 1.837 6.98-2.081 6.98-2.081-.856-2.817-6.368-2.161-6.368-2.161 2.817-4.609.491-6.1.491-6.1-3.551 2.154-3.186 7.129-3.186 7.129-2.081-3.207-4.04-1.033-4.04-1.033-.736 3.72 2.693 3.141 2.693 3.141a5.454 5.454 0 0 0-.549 3.406q1.592.29 3.182.554a7.962 7.962 0 0 0 .797-2.855z" class="cls-4" data-name="Path 519" transform="translate(-57.557 -93.074)"></path><path id="Path_520" d="M137.521 253.863l26.031 31.1s17.924 3.261 13.7 12.23l-6.755-1.957s2.365 9.295 8.212 10.273c0 0-19.366 7.758-23.778-15.655 0 0-27.793-17.682-31.86-35.992z" class="cls-7" data-name="Path 520" transform="translate(-70.672 -108.058)"></path></g></g></g></svg>